<mxfile host="app.diagrams.net" modified="2024-02-20T01:47:51.933Z" agent="Mozilla/5.0 (Macintosh; Intel Mac OS X 10_15_7) AppleWebKit/537.36 (KHTML, like Gecko) Chrome/121.0.0.0 Safari/537.36" version="23.1.5" etag="2PkpnVOZ2xegu95c3rK1" type="github">
  <diagram name="第 1 页" id="AXkgV3cPQqujHTYa1UTI">
    <mxGraphModel>
      <root>
        <mxCell id="0" />
        <mxCell id="1" parent="0" />
      </root>
    </mxGraphModel>
  </diagram>
</mxfile>
